HIERARCHY
ROOT root
{
	OFFSET	0	13.1	24.9
	CHANNELS 6  Xposition Yposition Zposition Xrotation Yrotation Zrotation
	JOINT spine_1
	{
		OFFSET	0	9.99999	0
		CHANNELS 3  Xrotation Yrotation Zrotation
		JOINT spine_2
		{
			OFFSET	0	112	-10
			CHANNELS 3  Xrotation Yrotation Zrotation
			JOINT spine_3
			{
				OFFSET	0	206.5	19.3
				CHANNELS 3  Xrotation Yrotation Zrotation
				JOINT spine_4
				{
					OFFSET	0	110.4	14.6
					CHANNELS 3  Xrotation Yrotation Zrotation
					JOINT neck_1
					{
						OFFSET	0	71.8	-50.3
						CHANNELS 3  Xrotation Yrotation Zrotation
						JOINT neck_2
						{
							OFFSET	0	86.2	-25.8
							CHANNELS 3  Xrotation Yrotation Zrotation
							JOINT head_ee
							{
								OFFSET	0	179.8	-8.7
								CHANNELS 3  Xrotation Yrotation Zrotation
								End Site
								{
									OFFSET	1	0	0
								}
							}
						}
					}
					JOINT left_clavicle
					{
						OFFSET	-43.2	22.4	-70.8
						CHANNELS 3  Xrotation Yrotation Zrotation
						JOINT left_shoulder
						{
							OFFSET	-93.9	-5.79999	48.7
							CHANNELS 3  Xrotation Yrotation Zrotation
							JOINT left_elbow
							{
								OFFSET	-291.4	-30.8	15.2
								CHANNELS 3  Xrotation Yrotation Zrotation
								JOINT left_lowarm_twist
								{
									OFFSET	-110.7	-3.89999	13.6
									CHANNELS 3  Xrotation Yrotation Zrotation
									JOINT left_hand
									{
										OFFSET	-110.7	-3.89999	13.6
										CHANNELS 3  Xrotation Yrotation Zrotation
										JOINT left_ee
										{
											OFFSET	-80.8	-5.10001	12.1
											CHANNELS 3  Xrotation Yrotation Zrotation
											End Site
											{
												OFFSET	1	0	0
											}
										}
									}
								}
							}
						}
					}
					JOINT right_clavicle
					{
						OFFSET	43.2	22.4	-70.8
						CHANNELS 3  Xrotation Yrotation Zrotation
						JOINT right_shoulder
						{
							OFFSET	93.9	-5.79999	48.7
							CHANNELS 3  Xrotation Yrotation Zrotation
							JOINT right_elbow
							{
								OFFSET	291.4	-30.8	15.2
								CHANNELS 3  Xrotation Yrotation Zrotation
								JOINT right_lowarm_twist
								{
									OFFSET	110.7	-3.89999	13.6
									CHANNELS 3  Xrotation Yrotation Zrotation
									JOINT right_hand
									{
										OFFSET	110.7	-3.89999	13.6
										CHANNELS 3  Xrotation Yrotation Zrotation
										JOINT right_ee
										{
											OFFSET	80.8	-5.10001	12.1
											CHANNELS 3  Xrotation Yrotation Zrotation
											End Site
											{
												OFFSET	1	0	0
											}
										}
									}
								}
							}
						}
					}
				}
			}
		}
	}
	JOINT left_hip
	{
		OFFSET	-82.8	-127.5	0.300001
		CHANNELS 3  Xrotation Yrotation Zrotation
		JOINT left_knee
		{
			OFFSET	-28.2	-396.7	2.2
			CHANNELS 3  Xrotation Yrotation Zrotation
			JOINT left_ankle
			{
				OFFSET	-11.7	-411.3	35.4
				CHANNELS 3  Xrotation Yrotation Zrotation
				JOINT left_toes
				{
					OFFSET	0	-60	-88.6
					CHANNELS 3  Xrotation Yrotation Zrotation
					JOINT left_foot_ee
					{
						OFFSET	-22.5	-16.5	-42.2
						CHANNELS 3  Xrotation Yrotation Zrotation
						End Site
						{
							OFFSET	1	0	0
						}
					}
				}
			}
		}
	}
	JOINT right_hip
	{
		OFFSET	82.8	-127.5	0.300001
		CHANNELS 3  Xrotation Yrotation Zrotation
		JOINT right_knee
		{
			OFFSET	28.2	-396.7	2.2
			CHANNELS 3  Xrotation Yrotation Zrotation
			JOINT right_ankle
			{
				OFFSET	11.7	-411.3	35.4
				CHANNELS 3  Xrotation Yrotation Zrotation
				JOINT right_toes
				{
					OFFSET	0	-60	-88.6
					CHANNELS 3  Xrotation Yrotation Zrotation
					JOINT right_foot_ee
					{
						OFFSET	22.5	-16.5	-42.2
						CHANNELS 3  Xrotation Yrotation Zrotation
						End Site
						{
							OFFSET	1	0	0
						}
					}
				}
			}
		}
	}
}
MOTION
Frames: 14
Frame Time: 0.02
3574.42 741.953 -1474.73 -54.5799832368 82.8486199902 54.4576437853 1.78849 -0.029603 -0.0623203 1.7885 -0.0255775 -0.0640777 1.78853 -0.0136559 -0.0676289 1.78852 -0.0241653 -0.0646235 -23.7166 16.1963 13.3873 -24.43 25.4097 20.3564 -0.0 0.0 -0.0 3.05692 23.5313 6.9121 -15.1743 -4.99667 63.6431 1.40735 -34.8807 0.442146 -63.3544 -5.70262 5.1933 -0.134379 9.19737 2.95045 -0.0 0.0 -0.0 13.0215 23.3275 -26.0144 -16.432 9.75756 -60.9955 0.406075 11.3739 -0.0404386 83.2202 4.21471 8.78077 0.559847 -28.7452 -14.3631 0.0 0.0 0.0 19.2426 49.0775 -15.1364 -6.4334 0.210919 0.964292 14.1617 -28.3622 -2.44752 11.9253 -0.0 -0.0 -0.0 0.0 -0.0 17.0976 17.5732 -2.55101 -14.1414 -0.319415 -2.14117 32.4106 15.1033 4.43193 -33.3248 0.0 0.0 0.0 0.0 0.0 
3570.00446159 740.858 -1471.91171674 -44.5940426036 81.8440638122 44.3360773663 1.81619 -0.0276234 -0.103903 1.81619 -0.0209558 -0.10545 1.81623 -0.00173251 -0.107499 1.81622 -0.0186881 -0.105876 -23.1852 16.2647 13.333 -23.8623 25.4484 20.1754 -0.0 0.0 -0.0 2.39813 23.0697 5.98695 -14.3752 -6.03043 64.3141 1.54525 -37.4304 0.523524 -63.4547 -5.71526 5.19568 -0.0716292 7.36079 2.59984 -0.0 0.0 -0.0 12.9855 23.736 -25.8906 -17.7594 8.74691 -61.1591 0.395075 11.0735 -0.0382975 83.2134 4.2139 8.78043 0.556964 -28.5184 -14.2759 0.0 0.0 0.0 18.5037 49.5661 -14.7143 -6.40853 0.210313 0.960523 14.0865 -28.3968 -2.43649 13.1722 -0.0 -0.0 -0.0 0.0 -0.0 17.1875 17.678 -2.35756 -15.4756 -0.32208 -2.34586 32.3483 12.7468 4.36072 -33.6626 0.0 0.0 0.0 0.0 0.0 
3567.76543578 740.862 -1470.04448241 -38.7242679427 79.9033461509 38.2522443476 2.00517 0.089929 -0.0500554 2.00517 0.0929319 -0.0442315 2.0051 0.0992616 -0.0272011 2.00511 0.09372 -0.0425362 -23.1441 16.2675 12.0894 -23.9762 25.9908 19.0797 -0.0 0.0 -0.0 3.03081 23.1797 6.86882 -13.7595 -6.13506 62.9781 1.58901 -38.2052 0.550356 -63.4202 -5.7109 5.19486 -0.132474 6.50151 1.84748 -0.0 0.0 -0.0 13.0003 23.6876 -25.9296 -17.7096 7.91295 -61.502 0.348502 9.79505 -0.029862 83.4948 4.24722 8.79437 0.432185 -27.6589 -13.2993 0.0 0.0 0.0 17.5992 48.8448 -13.6502 -6.2263 0.205824 0.932918 14.0291 -27.0162 -2.3863 13.9605 -0.0 -0.0 -0.0 0.0 -0.0 16.9864 17.9063 -1.93919 -14.7397 -0.321199 -2.23295 32.2081 11.2876 4.31059 -34.3858 0.0 0.0 0.0 0.0 0.0 
3561.06668931 738.652 -1469.60032227 -31.2693546658 77.3630156183 30.879861238 2.0689 -0.0621626 -0.197611 2.06892 -0.0494621 -0.201166 2.06909 -0.0135492 -0.206714 2.06904 -0.0460258 -0.20198 -22.9926 16.3157 11.9448 -23.836 26.1174 18.9314 -0.0 0.0 -0.0 3.00706 23.2226 6.83675 -14.0035 -8.2292 62.3767 1.61898 -38.7264 0.568996 -63.1843 -5.68121 5.18922 -0.285088 5.94206 0.616492 -0.0 0.0 -0.0 12.9647 23.3261 -25.8827 -17.7792 6.96066 -61.5222 0.336669 9.46862 -0.0278823 83.9649 4.30301 8.81729 0.327856 -27.6497 -12.7085 0.0 0.0 0.0 17.2216 49.3493 -13.5044 -5.69866 0.192331 0.85307 14.8371 -26.101 -2.48679 13.835 -0.0 -0.0 -0.0 0.0 -0.0 17.5883 18.3634 -2.23095 -16.9937 -0.319315 -2.57875 34.8138 11.7293 4.58688 -34.5256 0.0 0.0 0.0 0.0 0.0 
3555.86636756 737.824 -1467.4312314 -25.1639247725 75.8429461325 24.6468666262 2.05886 -0.106406 -0.189651 2.05888 -0.0941227 -0.196038 2.0592 -0.0583831 -0.209478 2.05915 -0.0907335 -0.197629 -22.9062 15.985 11.7439 -23.6984 25.5502 18.5475 -0.0 0.0 -0.0 2.96752 22.9558 6.77572 -14.3328 -8.33158 61.6879 1.64762 -39.2176 0.58701 -62.8112 -5.6343 5.18006 -0.520945 5.04257 -1.31097 -0.0 0.0 -0.0 12.7441 22.239 -25.472 -17.7477 6.05487 -61.2229 0.323053 9.09219 -0.0256864 84.9904 4.42538 8.86569 0.166502 -27.8162 -11.8597 0.0 0.0 0.0 17.0595 49.6995 -13.6055 -6.46955 0.211797 0.969771 14.1944 -24.9973 -2.35682 14.1325 -0.0 -0.0 -0.0 0.0 -0.0 16.9866 18.5779 -1.99505 -17.6519 -0.316198 -2.6797 35.6275 11.6882 4.66575 -34.572 0.0 0.0 0.0 0.0 0.0 
3551.53772684 737.126 -1466.7648148 -21.982748307 72.8809170009 21.235680128 2.19287 -0.0898454 -0.210359 2.19289 -0.0762777 -0.21565 2.19318 -0.0379102 -0.225579 2.19312 -0.0730604 -0.216761 -22.2856 16.2006 10.9598 -23.1484 26.2005 17.7836 -0.0 0.0 -0.0 3.24501 23.444 7.17045 -14.1463 -9.29347 61.0926 1.64826 -39.2284 0.587414 -62.5856 -5.60595 5.17437 -0.664073 4.37001 -2.5422 -0.0 0.0 -0.0 12.7551 22.2759 -25.4943 -17.7522 5.38815 -60.8695 0.305318 8.60074 -0.022959 85.2815 4.46026 8.87903 0.077968 -27.3747 -11.212 0.0 0.0 0.0 16.989 51.0001 -13.7114 -6.36212 0.209179 0.953492 13.6097 -23.968 -2.24069 14.1295 -0.0 -0.0 -0.0 0.0 -0.0 16.9331 18.496 -1.746 -18.4793 -0.310636 -2.80652 37.2974 11.0795 4.8097 -34.4703 0.0 0.0 0.0 0.0 0.0 
3542.2879369 735.275 -1470.40816928 -18.5811474041 71.1419885748 17.6974226132 2.22936 -0.0418648 -0.302742 2.22941 -0.0225158 -0.304792 2.22953 0.030239 -0.304123 2.2294 -0.0181708 -0.305082 -22.5983 15.7091 10.7722 -23.4197 25.3932 17.4516 -0.0 0.0 -0.0 3.3079 23.6191 7.25962 -14.5092 -11.0014 60.0608 1.68201 -39.7984 0.60889 -62.7126 -5.6219 5.17759 -0.754254 2.53412 -3.93725 -0.0 0.0 -0.0 12.685 22.0312 -25.3533 -17.6268 3.97749 -60.7613 0.291446 8.21544 -0.0209306 85.0816 4.4363 8.86989 0.146138 -28.3959 -11.9435 0.0 0.0 0.0 16.0753 51.8947 -13.5573 -6.13875 0.203636 0.919661 13.3061 -25.303 -2.22627 14.0123 -0.0 -0.0 -0.0 0.0 -0.0 16.7085 18.333 -1.81391 -19.9386 -0.296365 -3.02996 38.5819 10.616 4.91616 -35.7801 0.0 0.0 0.0 0.0 0.0 
3542.15916807 735.275 -1471.50720263 -16.9237413734 69.2792827998 15.9362415126 2.22936 -0.0418648 -0.302742 2.22941 -0.0225158 -0.304792 2.22953 0.030239 -0.304123 2.2294 -0.0181708 -0.305082 -22.5983 15.7091 10.7722 -23.4197 25.3932 17.4516 -0.0 0.0 -0.0 3.3079 23.6191 7.25962 -14.5092 -11.0014 60.0608 1.68201 -39.7984 0.60889 -62.7126 -5.6219 5.17759 -0.754254 2.53412 -3.93725 -0.0 0.0 -0.0 12.685 22.0312 -25.3533 -17.6268 3.97749 -60.7613 0.291446 8.21544 -0.0209306 85.0816 4.4363 8.86989 0.146138 -28.3959 -11.9435 0.0 0.0 0.0 16.0753 51.8947 -13.5573 -6.13875 0.203636 0.919661 13.3061 -25.303 -2.22627 14.0123 -0.0 -0.0 -0.0 0.0 -0.0 16.7085 18.333 -1.81391 -19.9386 -0.296365 -3.02996 38.5819 10.616 4.91616 -35.7801 0.0 0.0 0.0 0.0 0.0 
3542.06080344 735.275 -1472.72248966 -15.4196445386 67.2095185619 14.317075979 2.22936 -0.0418648 -0.302742 2.22941 -0.0225158 -0.304792 2.22953 0.030239 -0.304123 2.2294 -0.0181708 -0.305082 -22.5983 15.7091 10.7722 -23.4197 25.3932 17.4516 -0.0 0.0 -0.0 3.3079 23.6191 7.25962 -14.5092 -11.0014 60.0608 1.68201 -39.7984 0.60889 -62.7126 -5.6219 5.17759 -0.754254 2.53412 -3.93725 -0.0 0.0 -0.0 12.685 22.0312 -25.3533 -17.6268 3.97749 -60.7613 0.291446 8.21544 -0.0209306 85.0816 4.4363 8.86989 0.146138 -28.3959 -11.9435 0.0 0.0 0.0 16.0753 51.8947 -13.5573 -6.13875 0.203636 0.919661 13.3061 -25.303 -2.22627 14.0123 -0.0 -0.0 -0.0 0.0 -0.0 16.7085 18.333 -1.81391 -19.9386 -0.296365 -3.02996 38.5819 10.616 4.91616 -35.7801 0.0 0.0 0.0 0.0 0.0 
3535.46596086 735.885 -1477.89617034 -13.7061749981 63.0125086043 12.3278487043 2.26817 0.132281 -0.324745 2.26821 0.152677 -0.31567 2.26736 0.204507 -0.284842 2.26728 0.156955 -0.313565 -21.7268 15.594 11.3422 -22.3757 24.7419 17.6308 -0.0 0.0 -0.0 3.30552 24.071 7.26158 -15.0279 -11.4141 59.3828 1.73776 -40.7195 0.644923 -62.8991 -5.64534 5.18225 -1.09399 1.70163 -6.56865 -0.0 0.0 -0.0 12.4011 21.7338 -24.7227 -17.2364 2.79628 -61.6858 0.264796 7.47312 -0.0172934 85.1178 4.44064 8.87155 0.108245 -28.6335 -11.8145 0.0 0.0 0.0 15.2257 52.916 -13.3873 -5.66858 0.191539 0.84852 13.9896 -24.1454 -2.3035 14.88 -0.0 -0.0 -0.0 0.0 -0.0 15.8088 18.1586 -1.67925 -20.1871 -0.293367 -3.06799 39.6185 10.6109 5.00812 -34.4075 0.0 0.0 0.0 0.0 0.0 
3535.85032652 735.885 -1481.04047447 -11.8693719444 58.4818201033 10.2242637695 2.26817 0.132281 -0.324745 2.26821 0.152677 -0.31567 2.26736 0.204507 -0.284842 2.26728 0.156955 -0.313565 -21.7268 15.594 11.3422 -22.3757 24.7419 17.6308 -0.0 0.0 -0.0 3.30552 24.071 7.26158 -15.0279 -11.4141 59.3828 1.73776 -40.7195 0.644923 -62.8991 -5.64534 5.18225 -1.09399 1.70163 -6.56865 -0.0 0.0 -0.0 12.4011 21.7338 -24.7227 -17.2364 2.79628 -61.6858 0.264796 7.47312 -0.0172934 85.1178 4.44064 8.87155 0.108245 -28.6335 -11.8145 0.0 0.0 0.0 15.2257 52.916 -13.3873 -5.66858 0.191539 0.84852 13.9896 -24.1454 -2.3035 14.88 -0.0 -0.0 -0.0 0.0 -0.0 15.8088 18.1586 -1.67925 -20.1871 -0.293367 -3.06799 39.6185 10.6109 5.00812 -34.4075 0.0 0.0 0.0 0.0 0.0 
3536.40162854 735.885 -1483.7878823 -10.6578081272 54.4517427569 8.7717149001 2.26817 0.132281 -0.324745 2.26821 0.152677 -0.31567 2.26736 0.204507 -0.284842 2.26728 0.156955 -0.313565 -21.7268 15.594 11.3422 -22.3757 24.7419 17.6308 -0.0 0.0 -0.0 3.30552 24.071 7.26158 -15.0279 -11.4141 59.3828 1.73776 -40.7195 0.644923 -62.8991 -5.64534 5.18225 -1.09399 1.70163 -6.56865 -0.0 0.0 -0.0 12.4011 21.7338 -24.7227 -17.2364 2.79628 -61.6858 0.264796 7.47312 -0.0172934 85.1178 4.44064 8.87155 0.108245 -28.6335 -11.8145 0.0 0.0 0.0 15.2257 52.916 -13.3873 -5.66858 0.191539 0.84852 13.9896 -24.1454 -2.3035 14.88 -0.0 -0.0 -0.0 0.0 -0.0 15.8088 18.1586 -1.67925 -20.1871 -0.293367 -3.06799 39.6185 10.6109 5.00812 -34.4075 0.0 0.0 0.0 0.0 0.0 
3518.3236489 731.484 -1503.3473006 -9.78689202816 51.3879289988 7.85272673089 2.60289 0.253074 -0.575107 2.60303 0.289156 -0.557839 2.60016 0.377559 -0.502241 2.59992 0.293502 -0.555564 -22.5919 14.4503 11.964 -23.0534 22.4195 17.8376 -0.0 0.0 -0.0 2.81585 24.0168 6.59252 -18.6229 -13.0716 58.6937 1.92567 -43.6444 0.771141 -62.8543 -5.63971 5.18114 -1.47466 -3.56872 -11.5076 -0.0 0.0 -0.0 12.5375 21.2675 -25.076 -15.7183 -1.75586 -61.1641 0.192228 5.43966 -0.00913193 85.1314 4.44227 8.87217 0.333477 -29.0937 -13.2139 0.0 0.0 0.0 13.7431 52.903 -13.2435 -5.72065 0.192908 0.856394 16.6169 -22.7592 -2.66232 14.0917 -0.0 -0.0 -0.0 0.0 -0.0 14.3565 17.9761 -1.55604 -21.697 -0.271615 -3.29863 39.4072 12.4402 5.03674 -31.9178 0.0 0.0 0.0 0.0 0.0 
3519.51970742 731.484 -1505.57977107 -9.32677418142 49.1154208436 7.25440538584 2.60289 0.253074 -0.575107 2.60303 0.289156 -0.557839 2.60016 0.377559 -0.502241 2.59992 0.293502 -0.555564 -22.5919 14.4503 11.964 -23.0534 22.4195 17.8376 -0.0 0.0 -0.0 2.81585 24.0168 6.59252 -18.6229 -13.0716 58.6937 1.92567 -43.6444 0.771141 -62.8543 -5.63971 5.18114 -1.47466 -3.56872 -11.5076 -0.0 0.0 -0.0 12.5375 21.2675 -25.076 -15.7183 -1.75586 -61.1641 0.192228 5.43966 -0.00913193 85.1314 4.44227 8.87217 0.333477 -29.0937 -13.2139 0.0 0.0 0.0 13.7431 52.903 -13.2435 -5.72065 0.192908 0.856394 16.6169 -22.7592 -2.66232 14.0917 -0.0 -0.0 -0.0 0.0 -0.0 14.3565 17.9761 -1.55604 -21.697 -0.271615 -3.29863 39.4072 12.4402 5.03674 -31.9178 0.0 0.0 0.0 0.0 0.0 
